<?xml version="1.0" standalone="no"?>
<!DOCTYPE svg PUBLIC "-//W3C//DTD SVG 20010904//EN"
 "http://www.w3.org/TR/2001/REC-SVG-20010904/DTD/svg10.dtd">
<svg version="1.0" xmlns="http://www.w3.org/2000/svg"
 width="400.000000pt" height="300.000000pt" viewBox="0 0 400.000000 300.000000"
 preserveAspectRatio="xMidYMid meet">

<g transform="translate(0.000000,300.000000) scale(0.100000,-0.100000)"
fill="#000000" stroke="none">
<path d="M1873 2140 c-17 -7 -23 -18 -23 -40 0 -30 0 -30 43 -23 70 13 198 7
261 -11 104 -31 176 -74 257 -155 121 -121 173 -244 173 -411 0 -149 -48 -279
-141 -380 l-48 -52 -135 198 c-74 108 -136 201 -138 204 -2 4 38 51 88 103 86
92 90 99 90 142 0 25 -1 45 -3 45 -2 0 -110 -110 -240 -245 l-237 -244 0 424
c0 489 11 449 -106 390 -176 -88 -293 -231 -345 -421 -27 -100 -23 -265 9
-364 63 -193 229 -359 422 -422 99 -32 264 -36 364 -9 74 20 169 62 180 79 2
4 -3 18 -13 31 l-18 23 -49 -25 c-166 -84 -348 -85 -523 -2 -93 45 -213 161
-259 250 -89 178 -92 355 -7 534 40 84 160 213 233 250 l42 21 0 -397 c0 -376
1 -400 20 -430 23 -39 46 -51 105 -59 l45 -7 0 57 c0 31 6 69 14 84 16 29 133
149 139 141 3 -2 73 -104 157 -227 l152 -222 40 32 c90 71 173 203 208 332 28
102 24 266 -8 366 -63 193 -228 358 -422 422 -72 24 -287 36 -327 18z"/>
<path d="M1850 1646 c0 -152 4 -276 8 -276 15 0 271 277 282 305 12 31 13 75
3 75 -5 0 -56 -50 -115 -112 l-107 -113 -1 161 c0 150 -2 163 -22 194 -47 68
-48 62 -48 -234z"/>
<path d="M2042 1348 c-22 -22 -12 -50 53 -143 44 -63 75 -97 99 -109 73 -34
70 -20 -27 121 -52 75 -99 139 -104 140 -5 2 -14 -2 -21 -9z"/>
</g>
</svg>
